<?xml version="1.0" encoding="UTF-8"?>
<svg id="Layer_2" data-name="Layer 2" xmlns="http://www.w3.org/2000/svg" viewBox="0 0 126.72 20.14">
  <defs>
    <style>
      .cls-1 {
        fill: #786cde;
      }
    </style>
  </defs>
  <g id="Layer_1-2" data-name="Layer 1">
    <g>
      <path class="cls-1" d="M16.42,17.23h-7.73l-1.61,2.57H0L12.46,.38h7.42l4.08,19.42h-7.08l-.46-2.57Zm-4.63-4.9h3.77l-.79-4.58h-.07l-2.9,4.58Z"/>
      <path class="cls-1" d="M29.04,.38h6.94l-3.07,14.42h9.94l-1.06,4.99H24.91L29.04,.38Z"/>
      <path class="cls-1" d="M47.11,.38h6.94l-3.07,14.42h9.94l-1.06,4.99h-16.87L47.11,.38Z"/>
      <path class="cls-1" d="M82.61,10.08c-1.34,6.29-5.04,10.06-12.6,10.06s-9.67-3.77-8.33-10.06c1.34-6.31,5.28-10.08,12.6-10.08s9.67,3.77,8.33,10.08Zm-6.79,.05l.02-.12c.65-3.05,.29-5.04-2.62-5.04s-4.06,1.99-4.7,5.04l-.02,.12c-.65,3.02-.36,5.04,2.57,5.04s4.1-2.02,4.75-5.04Z"/>
      <path class="cls-1" d="M103.9,12.19c-1.15,5.4-4.9,7.94-11.69,7.94s-9.53-2.54-8.38-7.94L86.35,.38h6.79l-2.23,10.49c-.41,1.94-.96,4.44,2.38,4.44s3.72-2.5,4.13-4.44L99.65,.38h6.77l-2.52,11.81Z"/>
      <path class="cls-1" d="M112.7,5.35h-6.14l1.06-4.97h19.11l-1.06,4.97h-6.17l-3.07,14.43h-6.79l3.07-14.43Z"/>
    </g>
  </g>
</svg>