<?xml version="1.0" encoding="utf-8"?>
<!-- Generator: Adobe Illustrator 26.5.0, SVG Export Plug-In . SVG Version: 6.00 Build 0)  -->
<svg version="1.1" id="Layer_2_00000124119454217814160620000007807778225085818504_"
	 xmlns="http://www.w3.org/2000/svg" xmlns:xlink="http://www.w3.org/1999/xlink" x="0px" y="0px" viewBox="0 0 126.7 20.2"
	 style="enable-background:new 0 0 126.7 20.2;" xml:space="preserve">
<style type="text/css">
	.st0{fill:#786CDE;}
</style>
<g id="Layer_1-2">
	<g>
		<path class="st0" d="M16.4,17.3H8.7l-1.6,2.6H0L12.5,0.5h7.4L24,19.8h-7.1L16.4,17.3z M11.8,12.4h3.8l-0.8-4.6h-0.1L11.8,12.4
			L11.8,12.4z"/>
		<path class="st0" d="M29,0.4h7l-3.1,14.4h9.9l-1.1,5H24.9L29,0.4z"/>
		<path class="st0" d="M47.1,0.4H54l-3,14.4h9.9l-1.1,5H43L47.1,0.4z"/>
		<path class="st0" d="M82.6,10.1c-1.3,6.3-5,10.1-12.6,10.1s-9.7-3.8-8.3-10.1C63,3.8,67,0,74.3,0S83.9,3.8,82.6,10.1z M75.8,10.2
			L75.8,10.2c0.7-3.1,0.3-5.1-2.6-5.1s-4.1,2-4.7,5v0.1c-0.7,3-0.4,5,2.6,5S75.2,13.2,75.8,10.2z"/>
		<path class="st0" d="M103.9,12.2c-1.2,5.4-4.9,7.9-11.7,7.9s-9.5-2.5-8.4-7.9l2.5-11.8h6.8l-2.2,10.5c-0.4,1.9-1,4.4,2.4,4.4
			s3.7-2.5,4.1-4.4l2.2-10.5h6.8L103.9,12.2z"/>
		<path class="st0" d="M112.7,5.4h-6.1l1.1-5h19.1l-1.1,5h-6.2l-3.1,14.4h-6.8L112.7,5.4L112.7,5.4z"/>
	</g>
</g>
</svg>
